<svg xmlns="http://www.w3.org/2000/svg" height="4564" width="2416pt" viewBox="0 0 2416 3423">
  <path d="M1213.3 16.361c-28.115.203-56.225 5.994-81.856 17.019-61.9 28.79-95.05 93.891-153.63 127.39-43.7 26.67-96.6 32.82-146.81 30.23-72.03-2.35-150.69 13.66-202.51 67.48-43.59 44.32-58.081 110.51-49.711 170.74 10.5 99.8 67.57 184.89 112.45 271.63 22.36 46.38 46.53 92.21 65.22 140.22-10.88 2.58-22.42.07-33.52.88-32.58-2.56-63.52 22.59-69.73 54.29-7.41 34.61 17.76 71.63 52.35 78.23 4.79-2.78 6.05 4.471 2.05 4.171-28.34 4.99-51.351 29.55-55.191 57.95-4.74 33.87 20.58 67.68 53.82 74.2 21.62 3.2 43.661-.6 65.341 2.14-.71.87-1.53 1.65-2.43 2.34-206.12 80.39-388.61 219.76-520.78 397.09-154.04 204.1-239.02 459.7-236.36 715.6.79 86.89-1.6 173.87 1.23 260.69 2.59 134.43 10.69 270.91 49.68 400.38 29.01 93.9 76.811 183.37 146.84 253.18 66.49 67.41 149.2 116.98 236.56 152.45 219.1 87.47 458.4 105.12 691.81 111.28 224.99 1.31 452.32-6.5 672.03-59.82 146.37-36.65 292.91-97.25 399.48-207.54 67.77-68.91 114.62-156.15 142.87-248.11 26.3-84.72 38.23-173.13 44.67-261.36 9.66-138.13 6.1-276.72 6.89-415.13-1.17-26.5-1.17-53.061-4.78-79.411-16.76-279.37-142.11-550.18-340.29-747.57-44.5-44.2-90.95-87.461-142.95-123.08-53.08-59.27-110.32-115.56-175.96-161.07-1.48-1.08-3.76-2.292-2.96-4.482 12.69-10.22 22.51-24.6 25.45-40.8 8.36-35.8-19.221-73.75-55.111-79.08-3.56.38-2.93-4.439.36-3.709 43.18-5.35 70.74-59.04 48.24-96.89-15.12-31.55-52.65-40.29-84.56-36.86 20.6-52.06 46.46-102.01 71.48-152.08 27.55-55.15 61.202-107.43 82.442-165.56 20.22-54.8 32.739-114.66 20.959-172.83-11.82-70.56-69.62-126.71-137.39-145.45-39.58-14.09-82.4-15.14-124-14.15-46.35 1.65-94.651-5.75-134.78-30.23-55.89-31.85-88.26-92.27-144.94-123.05-28.278-14.64-60.15-21.589-92.014-21.359z" fill="#c29945"/>
  <path d="M1708.96 205.152c-18.4 52.064-32.8 105.448-49.84 158-45.6 137.76-156.48 246.816-286.32 307.648-139.76 67.432-298.64 88.84-452.48 77.88-77.92-6.24-155.24-22-229.088-47.832 22.36 46.384 46.528 92.216 65.216 140.192 304.992-.08 610.032-.08 915.04 0 20.56-52.032 46.4-101.976 71.44-152.048 27.6-55.152 61.2-107.432 82.48-165.56 20.24-54.8 32.72-114.664 20.96-172.832-11.84-70.56-69.6-126.712-137.44-145.448zm350 1181.92c76.8 163.2 115.36 343.68 113.04 523.92-2.24 213.04 10.8 431.28-47.2 638.8-29.52 104.48-83.36 203.36-162.88 278.16-71.2 68.24-159.36 116.24-251.04 150.96-224.72 82-467.12 96.64-704.08 101.04-125.28.32-250.784-3.2-375.472-16.24-197.488-21.68-400.608-62.48-568.416-174.64 29.008 93.92 76.808 183.44 146.84 253.2 66.488 67.44 149.2 116.96 236.56 152.48 219.096 87.44 458.408 105.12 691.848 111.28 224.96 1.28 452.24-6.56 672-59.84 146.32-36.64 292.88-97.28 399.44-207.52 67.76-68.96 114.64-156.16 142.88-248.16 26.32-84.72 38.24-173.12 44.72-261.36 9.6-138.08 6.08-276.72 6.88-415.12-1.2-26.48-1.2-53.04-4.8-79.36-16.8-279.44-142.08-550.24-340.32-747.6z" fill="#a37f36"/>
  <path fill="#fed573" d="M2112.4 555.33c.7 3.27-3.4 12.85-3.4 18.58-3.6-4.92-2.2-14.75 3.4-18.58zM756.45 841.07c305.05-.12 610.05-.12 915.05 0 31.9-3.43 69.4 5.31 84.6 36.86 22.5 37.85-5.1 91.54-48.3 96.89-3.3-.73-3.9 4.09-.3 3.71 35.9 5.33 63.4 43.27 55.1 79.07-3 16.2-12.8 30.6-25.5 40.8-.8 2.2 1.5 3.4 3 4.5 65.6 45.5 122.9 101.8 175.9 161.1 125.3 151.7 196.3 340.4 237.4 530.9 5.3 22.1-10.2 45.7-32 50.7-23.6 7.2-49.9-10.4-53.4-34.6-24.7-112.2-59.4-222.9-111.4-325.6-52-102.2-122.2-197.2-211.6-269.2 60.2 116.9 95.2 246.6 102.8 378 8 117.3-2.6 235.3-23.8 350.8-1.3 18.6-10.1 38.5-29 45-28.2 12.8-62.1-12.4-59.8-42.8 16.5-90.7 28.8-182.8 27.8-275.2 1.8-124.6-20.9-250.4-71.3-364.7-30.6-69.5-71.2-134.5-118.6-193.8-267.1-1.2-534.3-.1-801.53-.6-21.68-2.7-43.72 1.1-65.34-2.1-33.24-6.5-58.56-40.3-53.82-74.2 3.84-28.4 26.85-52.97 55.19-57.96 4 .3 2.74-6.95-2.05-4.17-34.59-6.6-59.76-43.62-52.35-78.23 6.21-31.7 37.15-56.85 69.73-54.29 11.1-.81 22.64 1.7 33.52-.88z"/>
</svg>
