<svg xmlns="http://www.w3.org/2000/svg"
  xmlns:xlink="http://www.w3.org/1999/xlink" viewBox="0 0 16 16" version="1">
  <g transform="translate(0 -4.86)">
    <path id="a" stroke="#232323" stroke-width=".645" fill="#aad500" d="M.941 10.633l5.918 3.869 8.569-3.361-3.882-2.093L.941 10.633z"/>
    <use id="b" xlink:href="#a" transform="translate(0 -1.15)" height="16" width="16"/>
    <use id="c" xlink:href="#b" transform="translate(0 -1.293)" height="16" width="16"/>
    <use xlink:href="#c" transform="translate(0 -1.221)" height="16" width="16"/>
    <path stroke="#232323" stroke-width=".853" fill="#009bff" d="M6.461 6.607l1.826-.331L11.86 8.57l.014 3.866-1.81.504-.03-3.679-3.574-2.654z"/>
  </g>
  <g transform="translate(-.047 -3.093)">
    <path id="d" d="M7.907 16.79c0 .707-1.551 1.28-3.465 1.28S.977 17.497.977 16.79c0-.706 1.551-1.278 3.465-1.278s3.465.572 3.465 1.279z" stroke="#ffa900" stroke-width="1.2" fill="#ffe200"/>
    <use id="e" xlink:href="#d" transform="translate(0 -2)" height="16" width="16"/>
    <use id="f" xlink:href="#e" transform="translate(0 -2)" height="16" width="16"/>
  </g>
  <g transform="translate(-.233 -5.93)">
    <use id="g" xlink:href="#f" transform="matrix(.5595 0 0 .69059 11.05 7.19)" height="16" width="16"/>
    <use id="h" xlink:href="#g" transform="translate(0 -1.395)" height="16" width="16"/>
    <use xlink:href="#h" transform="translate(0 -1.581)" height="16" width="16"/>
  </g>
</svg>
