<svg xmlns="http://www.w3.org/2000/svg" viewBox="0 0 64 64">
  <defs>
    <linearGradient id="a" x1="-987.07" gradientUnits="userSpaceOnUse" y1="171.03" gradientTransform="matrix(.41463 0 0 .43437 432.99 -42.298)" x2="-987.79" y2="192.75">
      <stop stop-color="#005c94" offset="0"/>
      <stop stop-color="#19aeff" offset="1"/>
    </linearGradient>
  </defs>
  <g stroke-width="0">
    <rect ry="2.123" height="24.536" width="4.054" y="27.588" x="14.71" fill="url(#a)"/>
    <rect ry="2.123" height="24.536" width="4.054" y="27.588" x="21.344" fill="url(#a)"/>
    <rect ry="2.123" height="24.536" width="4.054" y="27.588" x="27.978" fill="url(#a)"/>
    <rect ry="2.123" height="24.536" width="4.054" y="27.588" x="34.612" fill="url(#a)"/>
    <rect ry="2.123" height="24.536" width="4.054" y="27.588" x="41.246" fill="url(#a)"/>
    <rect ry="2.123" height="24.536" width="4.054" y="27.588" x="47.88" fill="url(#a)"/>
    <rect ry="0" height="2.517" width="49.395" y="54.483" x="9.605" fill="#19aeff"/>
    <path fill="#005c94" d="M31.805 7.004c-.25 0-.536.103-.842.312l-20.188 13.79C9.795 21.777 9 23.304 9 24.529c0 .83.37 1.306.907 1.317.318.298.742.488 1.205.488h44.43c.999 0 1.802-.841 1.802-1.887 0-.174-.023-.342-.065-.502.096-.053.032-.194-.155-.407-.01-.012-.015-.015-.026-.027a1.79 1.79 0 0 0-.92-.828C52.905 20.03 43.42 13.934 37.61 10.26l-4.315-2.945c-.446-.306-.856-.385-1.166-.258a.83.83 0 0 0-.324-.055z"/>
  </g>
</svg>
