<?xml version="1.0"?>
<svg xmlns:rdf="http://www.w3.org/1999/02/22-rdf-syntax-ns#" xmlns="http://www.w3.org/2000/svg" xmlns:cc="http://web.resource.org/cc/" xmlns:xlink="http://www.w3.org/1999/xlink" xmlns:dc="http://purl.org/dc/elements/1.1/" xmlns:svg="http://www.w3.org/2000/svg" id="svg1" height="160pt" width="160pt">
  <defs id="defs3">
    <linearGradient id="linearGradient5443" x1="145.63" gradientUnits="userSpaceOnUse" y1="712.78" gradientTransform="scale(1.8064 .55358)" x2="145.63" y2="772.32">
      <stop id="stop2932" stop-color="#fff" offset="0"/>
      <stop id="stop2933" stop-color="#fff" stop-opacity="0" offset="1"/>
    </linearGradient>
    <radialGradient id="radialGradient5444" fx="125.14" fy="1084" gradientUnits="userSpaceOnUse" cy="1082.2" cx="124.36" gradientTransform="scale(2.1759 .45958)" r="54.578">
      <stop id="stop4811" stop-color="#fff" stop-opacity="0" offset="0"/>
      <stop id="stop4812" stop-color="#fff" stop-opacity=".68041" offset="1"/>
    </radialGradient>
    <linearGradient id="linearGradient9840" x1="112" gradientUnits="userSpaceOnUse" y1="125.17" gradientTransform="matrix(1.0473 0 0 .95486 46.25 53.75)" x2="-29.11" y2="-21.866">
      <stop id="stop9838" stop-color="#f8f5da" offset="0"/>
      <stop id="stop9839" stop-color="#fff" offset="1"/>
    </linearGradient>
  </defs>
  <g id="layer1">
    <path id="rect9215" stroke-linejoin="bevel" d="m17.5 31.25h168.75v153.75h-168.75v-153.75z" stroke="#000" stroke-linecap="round" stroke-width="2.5" fill="url(#linearGradient9840)"/>
    <g id="g8582" transform="translate(-11.25 3.75)">
      <path id="path1684" fill-rule="evenodd" fill="#9e9d9b" transform="matrix(.22888 -.11350 .11350 .22888 -68.5 -44.078)" d="m263.75 501.11l-0.49 125.61c8.1 4.57 18.01 2.41 21.49-3.7l-2.25-120.66-18.75-1.25z"/>
      <path id="path4813" fill-rule="evenodd" fill="#fff" transform="matrix(.22888 -.11350 .11350 .22888 -68.5 -44.078)" d="m265.37 538.01l0.39 89.57 8.01 3.04-3.08-92.9-5.32 0.29z"/>
      <path id="path6692" fill-rule="evenodd" d="m47.853 40.989c8.222 15.824 6.644 12.99 14.87 28.812 2.892 1.058 5.085-0.84 5.492-3.715-8.064-15.541-5.837-11.707-13.897-27.25-1.865 0.774-4.605 1.368-6.465 2.153zm1.74 0.634c1.091-0.455 2.181-0.909 3.272-1.364 7.9 15.244 5.896 10.226 13.769 25.481 0.238 2.247-1.08 3.146-3.005 3.113-7.936-15.302-6.099-11.929-14.036-27.23z"/>
      <path id="path1061" transform="matrix(.22888 -.11350 .11350 .22888 -68.5 -44.078)" fill="#f00" d="m266.25 361.26c-50.37 0-91.25 17.09-91.25 38.13 0 4.14 1.75 8.08 4.69 11.79 1.75 9.49 3.86 23.22 3.62 35.67-18.87 9.48-30.4 22-30.4 35.74 0 29.53 53.02 53.49 118.34 53.49s118.34-23.96 118.34-53.49c0-14.78-13.44-28.02-34.97-37.64-2.9-10.67-4.59-22.13-2.74-32.69 3.51-4.02 5.62-8.33 5.62-12.87 0-0.57-0.16-1.12-0.22-1.69 0.08-0.13 0.14-0.26 0.22-0.39-0.06-0.17-0.23-0.31-0.31-0.48-3.19-19.85-42.65-35.57-90.94-35.57z"/>
      <path id="path2309" transform="matrix(.25613 -.12701 .15351 .30958 -92.661 -79.76)" fill="url(#linearGradient5443)" d="m336.25 417.36a77.5 23.75 0 1 1 -155 0 77.5 23.75 0 1 1 155 0z"/>
      <path id="path2935" fill-rule="evenodd" transform="matrix(.22888 -.11350 .11350 .22888 -68.5 -44.078)" d="m348.54 411.26c-22.39 16.34-58.84 20.51-90.82 19.58-15.99-0.46-31.16-2.69-43.47-6.25s-23.53-6.41-27.95-11.66l-1.92 1.01c5.57 6.62 15.72 11.64 28.53 15.34 12.81 3.71 28.33 6 44.68 6.47 32.71 0.95 68.74-5.25 92.6-22.66l-1.65-1.83z"/>
      <path id="path3557" fill-rule="evenodd" transform="matrix(.22888 -.11350 .11350 .22888 -68.5 -44.078)" d="m351.45 447.14c-19.34 16.92-52.87 28.08-84.29 28.39-31.43 0.31-62.78-9.05-80.81-25.88l-1.19 0.83c19.47 18.17 49.74 30.27 82.06 29.96 32.32-0.32 64.67-13.36 85.34-31.44l-1.11-1.86z"/>
      <path id="path4179" fill-rule="evenodd" fill="url(#radialGradient5444)" transform="matrix(.22888 -.11350 .11350 .22888 -68.5 -44.078)" d="m157.5 487.36c46.52 35.19 173.92 40.21 228.75-5-7.92 63.23-200.88 72.48-228.75 5z"/>
      <path id="path6693" d="m33.318 7.9253c-6.102 3.1187-12.112 7.1137-15.858 12.992-1.55 2.425-2.725 7.535 1.64 8.645 2.004 1.084 1.442 2.85 2.695 4.672 1.144 1.725 3.071 2.859 0.997 4.516-1.966 3.184-3.748 8.343-1.326 11.637 2.839 3.657 7.885 4.03 12.208 3.909 9.836-0.514 19.241-4.203 27.515-9.378 5.829-3.837 11.549-8.518 14.603-14.947 1.583-3.215 1.672-7.648-1.28-10.125-2.984-2.546-7.119-2.942-10.893-2.858-1.642-2.205-4.859-4.498-4.514-7.4188 0.306-2.1414-0.12-4.1802-1.902-5.1868-4.068-2.1336-8.928-1.3201-13.219-0.4008-3.694 0.8898-7.263 2.2605-10.666 3.9437zm0.557 1.1229c5.88-2.8228 12.341-5.1158 18.952-4.6522 2.424 0.1925 5.666 1.3189 5.771 4.1789-0.57 1.7891 0.167 3.4891 1.055 5.0351 0.965 1.61 2.18 2.967 3.608 4.168 1.873 0.215 3.697 0.339 5.575 0.824 3.148 0.491 6.617 2.584 6.794 6.09 0.149 4.59-2.908 9.003-5.867 12.213-7.037 7.167-16.147 11.94-25.707 14.847-5.773 1.598-12.078 2.411-17.918 0.494-2.832-0.869-5.135-3.618-4.741-6.68 0.215-2.921 1.874-5.483 3.441-7.829 0-1.583-1.395-2.893-2.054-4.292-0.972-1.456-1.718-3.16-2.897-4.449-2.401-0.833-3.232-3.587-2.198-5.714 2.198-4.996 6.72-8.469 11.163-11.404 1.621-1.033 3.301-1.9755 5.023-2.8298z"/>
    </g>
  </g>
  <metadata>
    <rdf:RDF>
      <cc:Work>
        <dc:format>image/svg+xml</dc:format>
        <dc:type rdf:resource="http://purl.org/dc/dcmitype/StillImage"/>
        <cc:license rdf:resource="http://creativecommons.org/licenses/publicdomain/"/>
        <dc:publisher>
          <cc:Agent rdf:about="http://openclipart.org/">
            <dc:title>Openclipart</dc:title>
          </cc:Agent>
        </dc:publisher>
        <dc:title>Note with pin</dc:title>
        <dc:date>2009-03-12T15:57:08</dc:date>
        <dc:description>a paper note held with a pin</dc:description>
        <dc:source>http://openclipart.org/detail/22257/note-with-pin-by-nicubunu</dc:source>
        <dc:creator>
          <cc:Agent>
            <dc:title>nicubunu</dc:title>
          </cc:Agent>
        </dc:creator>
        <dc:subject>
          <rdf:Bag>
            <rdf:li>clip art</rdf:li>
            <rdf:li>clipart</rdf:li>
            <rdf:li>image</rdf:li>
            <rdf:li>media</rdf:li>
            <rdf:li>note</rdf:li>
            <rdf:li>office</rdf:li>
            <rdf:li>paper</rdf:li>
            <rdf:li>png</rdf:li>
            <rdf:li>public domain</rdf:li>
            <rdf:li>svg</rdf:li>
            <rdf:li>symbol</rdf:li>
          </rdf:Bag>
        </dc:subject>
      </cc:Work>
      <cc:License rdf:about="http://creativecommons.org/licenses/publicdomain/">
        <cc:permits rdf:resource="http://creativecommons.org/ns#Reproduction"/>
        <cc:permits rdf:resource="http://creativecommons.org/ns#Distribution"/>
        <cc:permits rdf:resource="http://creativecommons.org/ns#DerivativeWorks"/>
      </cc:License>
    </rdf:RDF>
  </metadata>
</svg>
